<svg width="143" height="30" viewBox="0 0 143 30" fill="none" xmlns="http://www.w3.org/2000/svg">
<path d="M39.0791 8H34.649C34.2469 8 34 8.24707 34 8.64944V19.4428C34 19.8452 34.2469 20.0923 34.649 20.0923H39.0791C40.0809 20.0923 40.878 19.8099 41.4494 19.2522C42.0208 18.6946 42.31 17.8969 42.31 16.8945V11.1978C42.31 10.1954 42.0208 9.39771 41.4494 8.84004C40.878 8.28237 40.0809 8 39.0791 8ZM39.4953 11.3107V16.7886C39.4953 17.0921 39.4389 17.311 39.3331 17.4169C39.2273 17.5228 39.0086 17.5792 38.7053 17.5792H36.8147V10.5201H38.6982C39.0015 10.5201 39.2202 10.5766 39.326 10.6825C39.4389 10.7884 39.4953 11.0072 39.4953 11.3107Z" fill="#484848"/>
<path d="M51.4665 8H45.5972C45.1951 8 44.9482 8.24707 44.9482 8.64944V19.4428C44.9482 19.8452 45.1951 20.0923 45.5972 20.0923H51.4665C51.8545 20.0923 52.0943 19.8452 52.0943 19.4428V18.2216C52.0943 17.8192 51.8545 17.5722 51.4665 17.5722H47.77V15.2215H50.7892C51.1913 15.2215 51.4382 14.9744 51.4382 14.572V13.3508C51.4382 12.9484 51.1913 12.7014 50.7892 12.7014H47.77V10.513H51.4665C51.8545 10.513 52.0943 10.266 52.0943 9.86361V8.64238C52.0943 8.24707 51.8545 8 51.4665 8Z" fill="#484848"/>
<path d="M62.4008 8H60.7148C60.3409 8 60.087 8.21883 60.0235 8.59297L58.3587 16.3651L56.7009 8.60003C56.6303 8.21883 56.3764 8 56.0096 8H54.3165C54.0555 8 53.865 8.07765 53.7592 8.22589C53.6887 8.32472 53.6181 8.49414 53.6957 8.74827L56.4752 19.4923C56.5457 19.8734 56.8067 20.0923 57.1876 20.0923H59.5367C59.8895 20.0923 60.1434 19.8805 60.2281 19.5134L63.0145 8.74121C63.0639 8.52238 63.0286 8.3459 62.9228 8.21178C62.817 8.07059 62.6336 8 62.4008 8Z" fill="#484848"/>
<path d="M71.4727 13.2872C70.6614 12.9554 69.7232 12.7436 68.6791 12.6589C67.4517 12.5531 67.4517 12.1083 67.4517 11.9601V11.6212C67.4517 11.0071 67.5716 10.7953 67.6421 10.7177C67.7056 10.6471 67.9032 10.5271 68.4393 10.5271H69.1377C69.6667 10.5271 69.8713 10.64 69.9419 10.7036C70.0124 10.7671 70.1253 10.9506 70.1253 11.4589V11.5648C70.1253 11.9671 70.3722 12.2142 70.7743 12.2142H72.298C72.7001 12.2142 72.947 11.9671 72.947 11.5648V11.2259C72.947 10.2235 72.6507 9.42586 72.0793 8.86113C71.5009 8.2964 70.6967 8.01404 69.6809 8.01404H67.889C66.8873 8.01404 66.0831 8.30346 65.5117 8.86113C64.9333 9.42586 64.644 10.2235 64.644 11.2259V11.8542C64.644 12.6448 64.7992 13.3013 65.1026 13.8166C65.413 14.339 65.8151 14.699 66.2877 14.8826C66.718 15.0449 67.1836 15.1861 67.6845 15.292C68.1853 15.3979 68.6509 15.4685 69.0742 15.5038C69.4481 15.532 69.7585 15.6308 69.9983 15.7932C70.2029 15.9273 70.3016 16.1109 70.3016 16.365V16.5838C70.3016 16.9862 70.2311 17.2756 70.1041 17.3956C70.0124 17.4874 69.8008 17.5862 69.314 17.5862H68.4675C67.9384 17.5862 67.7339 17.4733 67.6633 17.4097C67.5434 17.2968 67.4799 17.0356 67.4799 16.6685V16.5273C67.4799 16.125 67.233 15.8779 66.8309 15.8779H65.3072C64.9051 15.8779 64.6582 16.125 64.6582 16.5273V16.8874C64.6582 17.8897 64.9544 18.6874 65.5258 19.2522C66.1043 19.8169 66.9014 20.0993 67.9032 20.0993H69.8572C70.8589 20.0993 71.6561 19.8098 72.2345 19.2522C72.813 18.6874 73.1022 17.8897 73.1022 16.8874V16.2803C73.1022 15.5179 72.947 14.8755 72.6437 14.3743C72.3403 13.8449 71.9524 13.4849 71.4727 13.2872Z" fill="#FF8400"/>
<path d="M83.331 8H81.8214C81.4193 8 81.1724 8.24707 81.1724 8.64944V16.7886C81.1724 17.0921 81.116 17.311 81.0101 17.4169C80.9043 17.5228 80.6856 17.5792 80.3823 17.5792H79.1478C78.8586 17.5792 78.6469 17.5228 78.5411 17.4169C78.4353 17.311 78.3789 17.0921 78.3789 16.7886V8.64944C78.3789 8.24707 78.132 8 77.7299 8H76.2061C75.804 8 75.5571 8.24707 75.5571 8.64944V16.8945C75.5571 17.911 75.8464 18.7087 76.4107 19.2593C76.9751 19.8099 77.7722 20.0923 78.788 20.0923H80.7632C81.765 20.0923 82.5621 19.8099 83.1335 19.2522C83.7049 18.6946 83.9941 17.8969 83.9941 16.8945V8.62826C83.9941 8.24707 83.7402 8 83.331 8Z" fill="#FF8400"/>
<path d="M91.747 8H87.3663C86.9642 8 86.7173 8.24707 86.7173 8.64944V19.4428C86.7173 19.8452 86.9642 20.0923 87.3663 20.0923H88.89C89.2921 20.0923 89.539 19.8452 89.539 19.4428V16.118H91.747C92.7488 16.118 93.5459 15.8356 94.1102 15.278C94.6746 14.7203 94.9638 13.9226 94.9638 12.9202V11.1978C94.9638 10.1954 94.6746 9.40477 94.1102 8.84004C93.5459 8.28943 92.7488 8 91.747 8ZM92.1421 11.3107V12.8214C92.1421 13.1179 92.0856 13.3296 91.9798 13.4355C91.8811 13.5414 91.6694 13.5979 91.3661 13.5979H89.532V10.5272H91.3661C91.6694 10.5272 91.8811 10.5836 91.9798 10.6895C92.0856 10.7813 92.1421 11.0001 92.1421 11.3107Z" fill="#FF8400"/>
<path d="M103.775 8H97.9053C97.5032 8 97.2563 8.24707 97.2563 8.64944V19.4428C97.2563 19.8452 97.5032 20.0923 97.9053 20.0923H103.775C104.163 20.0923 104.402 19.8452 104.402 19.4428V18.2216C104.402 17.8192 104.163 17.5722 103.775 17.5722H100.078V15.2215H103.09C103.492 15.2215 103.739 14.9744 103.739 14.572V13.3508C103.739 12.9484 103.492 12.7014 103.09 12.7014H100.078V10.513H103.775C104.163 10.513 104.402 10.266 104.402 9.86361V8.64238C104.402 8.24707 104.163 8 103.775 8Z" fill="#FF8400"/>
<path d="M113.517 15.4545C114.533 14.9391 115.048 13.9862 115.048 12.6167V11.219C115.048 10.2166 114.751 9.4189 114.18 8.85417C113.601 8.28945 112.804 8.00708 111.803 8.00708H107.528C107.126 8.00708 106.879 8.25415 106.879 8.65652V19.4499C106.879 19.8523 107.126 20.0994 107.528 20.0994H109.051C109.454 20.0994 109.7 19.8523 109.7 19.4499V15.8356H110.674L112.388 19.5417C112.473 19.7605 112.6 19.9158 112.755 19.9935C112.889 20.0641 113.079 20.0923 113.34 20.0923H114.794C115.041 20.0923 115.224 20.0146 115.323 19.8664C115.429 19.7182 115.436 19.5276 115.337 19.2734L113.517 15.4545ZM112.233 11.3107V12.7085C112.233 12.9838 112.169 13.1814 112.057 13.2873C111.93 13.4002 111.697 13.4638 111.393 13.4638H109.707V10.5201H111.393C111.704 10.5201 111.93 10.5766 112.057 10.6966C112.169 10.8095 112.233 11.0143 112.233 11.3107Z" fill="#FF8400"/>
<path d="M119.985 8H118.462C118.06 8 117.813 8.24707 117.813 8.64944V19.4428C117.813 19.8452 118.06 20.0923 118.462 20.0923H119.985C120.388 20.0923 120.634 19.8452 120.634 19.4428V8.64944C120.627 8.24707 120.381 8 119.985 8Z" fill="#FF8400"/>
<path d="M128.599 8H126.588C125.572 8 124.775 8.28237 124.211 8.83298C123.647 9.38359 123.357 10.1813 123.357 11.1978V16.8945C123.357 17.911 123.647 18.7087 124.211 19.2593C124.775 19.8099 125.572 20.0923 126.588 20.0923H128.599C129.615 20.0923 130.412 19.8099 130.976 19.2593C131.54 18.7087 131.83 17.911 131.83 16.8945V11.1978C131.83 10.1813 131.54 9.38359 130.976 8.83298C130.412 8.28237 129.615 8 128.599 8ZM129.015 11.3107V16.7886C129.015 17.0921 128.959 17.311 128.853 17.4169C128.747 17.5228 128.528 17.5792 128.225 17.5792H126.948C126.645 17.5792 126.433 17.5228 126.334 17.4169C126.229 17.311 126.179 17.0921 126.179 16.7886V11.3107C126.179 11.0072 126.236 10.7884 126.334 10.6825C126.433 10.5766 126.645 10.5201 126.948 10.5201H128.225C128.528 10.5201 128.747 10.5766 128.853 10.6825C128.959 10.7884 129.015 11.0072 129.015 11.3107Z" fill="#FF8400"/>
<path d="M142.933 19.2734L141.106 15.4545C142.122 14.9391 142.637 13.9862 142.637 12.6167V11.219C142.637 10.2166 142.341 9.4189 141.769 8.85417C141.191 8.28945 140.394 8.00708 139.392 8.00708H135.117C134.715 8.00708 134.468 8.25415 134.468 8.65652V19.4499C134.468 19.8523 134.715 20.0994 135.117 20.0994H136.641C137.043 20.0994 137.29 19.8523 137.29 19.4499V15.8356H138.263L139.977 19.5417C140.062 19.7605 140.189 19.9158 140.344 19.9935C140.478 20.0641 140.669 20.0923 140.93 20.0923H142.383C142.63 20.0923 142.813 20.0146 142.912 19.8664C143.018 19.7182 143.032 19.5276 142.933 19.2734ZM139.822 11.3107V12.7085C139.822 12.9838 139.759 13.1814 139.646 13.2873C139.519 13.4002 139.286 13.4638 138.983 13.4638H137.297V10.5201H138.983C139.293 10.5201 139.519 10.5766 139.646 10.6966C139.759 10.8095 139.822 11.0143 139.822 11.3107Z" fill="#FF8400"/>
<path d="M27.876 12.2846C27.734 11.9737 27.4144 11.7694 27.0682 11.7694H21.2363L23.1537 4.0682C23.2513 3.66848 23.0649 3.251 22.6921 3.06447C22.3282 2.87793 21.8754 2.96676 21.6091 3.28653L10.4247 16.5571C10.2027 16.8236 10.1495 17.1878 10.3004 17.5075C10.4513 17.8273 10.762 18.0227 11.1082 18.0227H16.9401L15.0227 25.7239C14.9251 26.1236 15.1115 26.5411 15.4843 26.7277C15.6086 26.7898 15.7506 26.8254 15.8838 26.8254C16.1412 26.8254 16.3897 26.7188 16.5584 26.5145L27.7429 13.235C27.9737 12.9685 28.018 12.6044 27.876 12.2846Z" fill="#FF8400"/>
</svg>
